D:\school\WTK\thesis\model\3dpredictsim\Results\Batchsim_tmt_linear_v2\Pog_s1_tmt_bCst_d05_k800_ig24_act_GRF.mot
nRows=15
nColumns=19

name D:\school\WTK\thesis\model\3dpredictsim\Results\Batchsim_tmt_linear_v2\Pog_s1_tmt_bCst_d05_k800_ig24_act_GRF.mot
datacolumns 19
datarows 15
range 0.0000000000 0.1798166492
endheader
time 	ground_force_vx	ground_force_vy	ground_force_vz	ground_force_px	ground_force_py	ground_force_pz	1_ground_force_vx	1_ground_force_vy	1_ground_force_vz	1_ground_force_px	1_ground_force_py	1_ground_force_pz	ground_torque_x	ground_torque_y	ground_torque_z	1_ground_torque_x	1_ground_torque_y	1_ground_torque_z
        0.0000000000	      -31.3385482297	       24.5737963686	        2.7985928159	        0.2303361493	        0.0000000000	        0.0528566883	      109.3635381220	      403.7505538418	        4.4118431516	       -0.3802157512	        0.0000000000	       -0.0452953491	        0.0000000000	        0.0000000000	        0.0000000000	        0.0000000000	        0.0000000000	        0.0000000000	
        0.0128440464	     -117.7391084440	      113.8803237800	       11.8803912772	        0.2384269855	        0.0000000000	        0.0521085883	       45.5480304926	      266.2053943533	       -4.4723284320	       -0.3428733261	        0.0000000000	       -0.0424772621	        0.0000000000	        0.0000000000	        0.0000000000	        0.0000000000	        0.0000000000	        0.0000000000	
        0.0256880927	      -79.5102377123	      337.1033895604	        0.5777375830	        0.2440181583	        0.0000000000	        0.0514476774	       17.2800497328	      202.2276256804	      -10.0203962954	       -0.3211511414	        0.0000000000	       -0.0392517054	        0.0000000000	        0.0000000000	        0.0000000000	        0.0000000000	        0.0000000000	        0.0000000000	
        0.0385321391	      -95.7458871830	      569.8400268871	       -8.0496887913	        0.2469095572	        0.0000000000	        0.0515404655	       18.8292773689	      166.6545369266	      -10.5196819207	       -0.3208063595	        0.0000000000	       -0.0394346151	        0.0000000000	        0.0000000000	        0.0000000000	        0.0000000000	        0.0000000000	        0.0000000000	
        0.0513761855	     -153.6561846589	      793.0548135418	      -16.2518117215	        0.2560100147	        0.0000000000	        0.0535052155	       13.7107597602	      121.0934616175	      -15.3941685993	       -0.3203370305	        0.0000000000	       -0.0399755797	        0.0000000000	        0.0000000000	        0.0000000000	        0.0000000000	        0.0000000000	        0.0000000000	
        0.0642202319	     -191.6544458674	      935.1220685584	      -21.0827987809	        0.2661842769	        0.0000000000	        0.0558440663	        3.1608565753	       67.5828568591	      -14.5269109853	       -0.3201927919	        0.0000000000	       -0.0404047502	        0.0000000000	        0.0000000000	        0.0000000000	        0.0000000000	        0.0000000000	        0.0000000000	
        0.0770642782	     -189.5402196981	      929.8023531303	      -20.9549467370	        0.2730445272	        0.0000000000	        0.0572678063	       -8.7829143821	       13.7375558311	       -3.2613164889	       -0.3235731815	        0.0000000000	       -0.0399428999	        0.0000000000	        0.0000000000	        0.0000000000	        0.0000000000	        0.0000000000	        0.0000000000	
        0.0899083246	     -163.9399952227	      859.1516623820	      -19.4697806935	        0.2781179307	        0.0000000000	        0.0581960713	        0.5521224988	       -0.4485838218	       -0.0372664693	        0.0000000000	        0.0000000000	        0.0000000000	        0.0000000000	        0.0000000000	        0.0000000000	        0.0000000000	        0.0000000000	        0.0000000000	
        0.1027523710	     -144.5689008631	      784.3848072439	      -16.2780376470	        0.2822123429	        0.0000000000	        0.0588661356	       -5.2302235027	        3.6244456410	        0.3846052354	        0.0000000000	        0.0000000000	        0.0000000000	        0.0000000000	        0.0000000000	        0.0000000000	        0.0000000000	        0.0000000000	        0.0000000000	
        0.1155964173	     -126.7567234773	      740.2659022192	      -14.9267714216	        0.2861278259	        0.0000000000	        0.0592746998	       -3.9792078919	        2.4147242763	        0.3180410796	        0.0000000000	        0.0000000000	        0.0000000000	        0.0000000000	        0.0000000000	        0.0000000000	        0.0000000000	        0.0000000000	        0.0000000000	
        0.1284404637	     -113.7752535568	      716.3580981475	      -14.9995055399	        0.2909866688	        0.0000000000	        0.0597014778	       -2.6113949480	        1.4436389926	        0.1956274697	        0.0000000000	        0.0000000000	        0.0000000000	        0.0000000000	        0.0000000000	        0.0000000000	        0.0000000000	        0.0000000000	        0.0000000000	
        0.1412845101	     -104.9411908886	      701.5866293072	      -15.1813551480	        0.2969517684	        0.0000000000	        0.0597045598	       -1.9888686416	        1.0267121985	        0.1349277717	        0.0000000000	        0.0000000000	        0.0000000000	        0.0000000000	        0.0000000000	        0.0000000000	        0.0000000000	        0.0000000000	        0.0000000000	
        0.1541285565	      -94.9240158553	      681.1981846712	      -14.8883191726	        0.3025816020	        0.0000000000	        0.0595421899	       -1.3662013791	        0.6720992847	        0.0761598182	        0.0000000000	        0.0000000000	        0.0000000000	        0.0000000000	        0.0000000000	        0.0000000000	        0.0000000000	        0.0000000000	        0.0000000000	
        0.1669726028	      -85.5979249856	      658.0115107167	      -14.9171323839	        0.3076798013	        0.0000000000	        0.0593479696	       -0.9485919994	        0.4488536490	        0.0427663534	        0.0000000000	        0.0000000000	        0.0000000000	        0.0000000000	        0.0000000000	        0.0000000000	        0.0000000000	        0.0000000000	        0.0000000000	
        0.1798166492	      -77.5755676493	      637.1679325709	      -15.2602048280	        0.3124469290	        0.0000000000	        0.0590767742	       -0.7303826955	        0.3344249394	        0.0257835984	        0.0000000000	        0.0000000000	        0.0000000000	        0.0000000000	        0.0000000000	        0.0000000000	        0.0000000000	        0.0000000000	        0.0000000000	
